<?xml version="1.0" encoding="utf-8"?>
<!-- Generator: Adobe Illustrator 24.2.1, SVG Export Plug-In . SVG Version: 6.00 Build 0)  -->
<svg version="1.1" id="Layer_1" xmlns="http://www.w3.org/2000/svg" xmlns:xlink="http://www.w3.org/1999/xlink" x="0px" y="0px"
	 viewBox="0 0 1280 1024" style="enable-background:new 0 0 1280 1024;" xml:space="preserve">
<style type="text/css">
	.st0{fill:#7194EA;}
	.st1{fill:#FFDBB8;}
	.st2{fill:#F2BF88;}
	.st3{fill:#FFE9D7;}
	.st4{fill:#FFFFFF;}
	.st5{fill:#66BEFF;}
	.st6{fill:#C68544;}
</style>
<rect x="252.28" y="462.49" class="st0" width="173.68" height="291.23"/>
<ellipse class="st0" cx="339.12" cy="464.25" rx="86.84" ry="38.6"/>
<path class="st1" d="M462.81,318.24c0,0,7.02-31.58,12.28-78.95c5.26-47.37,15.79-147.37,12.28-184.21
	c-3.51-36.84-85.96,173.68-85.96,173.68l-31.58-17.54L447.02,42.8c0,0,35.09-40.35,52.63-28.07c17.54,12.28,143.86-2.33,143.86-2.33
	s40.35-8.2,63.16,7.59c22.81,15.79,82.46,187.72,82.46,187.72h-40.35L690.88,48.07c0,0-31.58,31.58-17.54,177.19
	c0,0,10.53,84.21,19.3,92.98C701.4,327.01,462.81,318.24,462.81,318.24z"/>
<path class="st0" d="M817.19,709.44c0,0,14.04-73.1,15.79-108.13c1.75-35.03,7.02-105.08,0-145.94c0,0,143.86-15.57,182.46,0
	c0,0-8.77,35.03,0,143.99c0,0,3.51,45.02,12.28,110.07C1027.72,709.44,936.49,722.22,817.19,709.44z"/>
<path class="st0" d="M827.31,462.97c0,0-51.19,118.82-49.54,166.19l-41.28-8.77c0,0,23.12-115.98,54.49-164.13
	s99.9-42.89,99.9-42.89v44.4L827.31,462.97z"/>
<path class="st0" d="M1015.22,462.97c0,0,46.97,118.82,45.45,166.19l37.88-8.77c0,0-21.21-115.98-50-164.13
	s-91.67-42.89-91.67-42.89v44.4L1015.22,462.97z"/>
<polygon class="st2" points="890.88,413.37 890.88,399.64 956.89,398.67 956.89,448.46 890.88,450.58 "/>
<rect x="852.12" y="788.81" class="st3" width="38.76" height="150.88"/>
<rect x="956.89" y="788.81" class="st3" width="38.76" height="150.88"/>
<ellipse class="st4" cx="877.6" cy="286.61" rx="25.48" ry="15.35"/>
<ellipse class="st4" cx="962.51" cy="286.61" rx="25.48" ry="15.35"/>
<ellipse class="st5" cx="877.6" cy="286.61" rx="10.06" ry="5.63"/>
<ellipse class="st5" cx="962.51" cy="286.61" rx="10.06" ry="5.63"/>
<path class="st4" d="M871.36,340c0,0,45.99,58.5,105.04,0H871.36z"/>
<path class="st6" d="M1161.33,210.21c-18.54-26.59-49.34-44-84.22-44s-65.68,17.41-84.22,44H1161.33z"/>
</svg>
