<?xml version="1.0" encoding="utf-8"?>
<!-- Generator: Adobe Illustrator 24.2.1, SVG Export Plug-In . SVG Version: 6.00 Build 0)  -->
<svg version="1.1" id="Layer_1" xmlns="http://www.w3.org/2000/svg" xmlns:xlink="http://www.w3.org/1999/xlink" x="0px" y="0px"
	 viewBox="0 0 1366 768" style="enable-background:new 0 0 1366 768;" xml:space="preserve">
<style type="text/css">
	.st0{opacity:0.5;}
	.st1{fill:#48E5FF;}
</style>
<g class="st0">
	<polygon class="st1" points="216.04,197.91 328.44,74.39 165.26,38.81 2.09,3.23 52.86,162.33 103.64,321.44 	"/>
</g>
<g class="st0">
	<polygon class="st1" points="313.96,463.78 220.09,325.65 147.4,476.01 74.71,626.37 241.27,614.14 407.84,601.92 	"/>
</g>
<g class="st0">
	<polygon class="st1" points="870.28,598.21 844.83,433.15 714.61,537.72 584.39,642.3 740.06,702.78 895.74,763.27 	"/>
</g>
<g class="st0">
	<polygon class="st1" points="585.58,372.85 745.82,419.91 706.46,257.61 667.09,95.3 546.21,210.55 425.34,325.79 	"/>
</g>
<g class="st0">
	<polygon class="st1" points="1105.46,162.08 1158.58,3.74 994.89,36.91 831.21,70.08 941.78,195.25 1052.35,320.42 	"/>
</g>
<g class="st0">
	<polygon class="st1" points="1207.84,667.37 1366.37,614.82 1241.6,503.8 1116.83,392.79 1083.07,556.35 1049.31,719.91 	"/>
</g>
</svg>
