<?xml version="1.0" encoding="utf-8"?>
<!-- Generator: Adobe Illustrator 24.2.1, SVG Export Plug-In . SVG Version: 6.00 Build 0)  -->
<svg version="1.1" id="Layer_1" xmlns="http://www.w3.org/2000/svg" xmlns:xlink="http://www.w3.org/1999/xlink" x="0px" y="0px"
	 viewBox="0 0 155.38 95.5" style="enable-background:new 0 0 155.38 95.5;" xml:space="preserve">
<style type="text/css">
	.st0{fill:#FF9803;stroke:#48E5FF;stroke-miterlimit:10;}
	.st1{fill:#FFFFFF;stroke:#48E5FF;stroke-miterlimit:10;}
</style>
<rect x="31.5" y="-14.13" transform="matrix(-1.836970e-16 1 -1 -1.836970e-16 49.5 -30.5)" class="st0" width="17" height="47.25"/>
<polygon class="st0" points="18.45,95.5 1.45,95.5 20.55,48.25 37.55,48.25 "/>
<polygon class="st1" points="20.55,48.25 37.55,48.25 18.45,1 1.45,1 "/>
<rect x="31.5" y="63.38" transform="matrix(-1.836970e-16 1 -1 -1.836970e-16 127 47)" class="st1" width="17" height="47.25"/>
<rect x="66.75" y="42.75" class="st0" width="15.94" height="40.09"/>
<polygon class="st0" points="155.38,81.08 155.38,95.5 111.06,79.3 111.06,64.88 "/>
<polygon class="st1" points="111.06,79.3 111.06,64.88 66.75,81.08 66.75,95.5 "/>
<rect x="139.43" y="42.75" class="st1" width="15.94" height="40.09"/>
</svg>
