<?xml version="1.0" encoding="utf-8"?>
<!-- Generator: Adobe Illustrator 24.2.0, SVG Export Plug-In . SVG Version: 6.00 Build 0)  -->
<svg version="1.1" id="Layer_1" xmlns="http://www.w3.org/2000/svg" xmlns:xlink="http://www.w3.org/1999/xlink" x="0px" y="0px"
	 viewBox="0 0 344.1 148.3" style="enable-background:new 0 0 344.1 148.3;" xml:space="preserve">
<style type="text/css">
	.st0{fill:#307EFC;stroke:#2400F9;stroke-miterlimit:10;}
	.st1{fill:#FFB64D;stroke:#F99C15;stroke-miterlimit:10;}
</style>
<path class="st0" d="M22.5,104.6L3.6,98.3c-2.1-0.7-3.2-3-2.5-5L31.3,3.8c0.7-2.1,3-3.2,5-2.5l18.8,6.3c2.1,0.7,3.2,3,2.5,5
	l-30.2,89.5C26.8,104.2,24.5,105.3,22.5,104.6z"/>
<path class="st0" d="M102.2,30.8l16.9,6.4c0,0,17.9-12.2,32.4-21.9c0,0,5.9-1.8,11.5-1.4c0,0,1.5,0.2,3,2.9l-14.1,11.7
	c0,0-4.1,5-7.1,28.7c-3,23.7,27,16.7,31.1,6.4c0,0,4.3-14.1,5.5-17.9c1.2-3.8,36.5,10.4,39.9,13.7c3.5,3.3,29.2,18.7,29.2,18.7
	s6.1,4.6,2,10.9c-4.1,6.4-7.6,5.9-7.6,5.9l-25.2-10.6c0,0-4-1.3-1.9,1c0,0,14.4,6.5,19.8,10.9s5.5,10.6,5.5,10.6s0.1,6.6-8.8,7.1
	s-8.9-4.4-22.7-10.4c0,0-3.8-2-2.1,1.7c0,0,13.9,9.3,14.1,9.6s3.2,3.7,0.3,8.6c-2.9,4.9-11.4,3-11.4,3l-17.7-8.7c0,0-2.3,0.8,3,4.8
	s6.4,6.9,6.4,6.9s0.2,4-5.8,7.5c-6,3.5-10.2-2.7-10.2-2.7l-0.1-7.9c0,0-3.9-5.5-6.8-7.1l-9.3,0c0,0,1.5-8-7.1-11.7S150,110,150,110
	l-4.7,6.8h-1.3c0,0-1.8-7.3-10.7-9.3l-11.1-0.1c0,0-3.1,1.8-3.3,2c-0.3,0.2-16-7.1-16-7.1l6.2-2.1c0,0-13.2-0.3-21.6-1.6
	s-11.1-5.5-11.1-5.5S102.2,33.5,102.2,30.8z"/>
<path class="st1" d="M340.2,106.5l-18.9,6c-2.1,0.7-4.3-0.5-5-2.6l-28.4-90.1c-0.7-2.1,0.5-4.3,2.6-5l18.9-6c2.1-0.7,4.3,0.5,5,2.6
	l28.4,90.1C343.5,103.6,342.3,105.9,340.2,106.5z"/>
<path class="st1" d="M146.8,61.3c0,0,4.7-24.7,7-30.5L177,12.4c0,0,5.5-3.2,13-1.4l29.4,16.7c0,0,6.4,3.3,8,9.3s1.7,7.6,1.7,7.6
	l1.8,0.1l-0.3-13.2l17.1-2.7l16.6,54.3c0,0,1.6,5.2,1.1,6.4h-8.5l0.1-9.7c0,0-1.6-2.8-5.5-6.4s-47.6-27.8-47.6-27.8
	s-10.8-2.8-19.4-3.1c0,0-2.1-0.6,3.7-4.1c0,0,0.2-4.4-5.8,2c0,0-2.2,1.9-5.4-1.7v9.1c0,0-1.5,7-6,13.9S160.1,70,160.1,70
	S148.1,71.2,146.8,61.3z"/>
<path class="st1" d="M95,105.2l15.2,5.8c0,0,0.2,5.3-9.4,7.9c-9.6,2.6-6.5-13.7-6.5-13.7"/>
<circle class="st1" cx="129" cy="121" r="10.3"/>
<path class="st1" d="M144.4,124.9l6.1-12c0,0,3.4-4.6,11.4-3.2s6.1,12.5,6.1,12.5s-3.2,10.8-8.7,14.9s-14.9-4.1-14.9-4.1
	S142.7,128.2,144.4,124.9z"/>
<path class="st1" d="M165.7,136l4.9-9.9c0,0,2.7-3.8,9.1-2.6c6.4,1.2,4.9,10.3,4.9,10.3s-2.5,8.9-6.9,12.3
	c-4.4,3.4-11.9-3.4-11.9-3.4S164.3,138.7,165.7,136z"/>
<path class="st1" d="M38.2,87.1l23.5-72.5c0,0,1.2-1.5,9.4,1.7S96.1,28,96.1,28s-3.8,25.2-28.9,71.2C67.1,99.3,45.3,93.9,38.2,87.1z
	"/>
<path class="st0" d="M253.8,29.7c0,0,14.2,56.2,22.6,69.9c0,0,23.8-1.7,29.5-9.1c0,0-17.8-65.5-22.5-72.6
	C283.4,17.8,261.6,20.1,253.8,29.7z"/>
</svg>
