<?xml version="1.0" encoding="utf-8"?>
<!-- Generator: Adobe Illustrator 24.2.0, SVG Export Plug-In . SVG Version: 6.00 Build 0)  -->
<svg version="1.1" xmlns="http://www.w3.org/2000/svg" xmlns:xlink="http://www.w3.org/1999/xlink" x="0px" y="0px"
	 viewBox="0 0 1003 313" style="enable-background:new 0 0 1003 313;" xml:space="preserve">
<style type="text/css">
	.st0{fill:#FF2222;}
	.st1{fill:#FFFFFF;}
</style>
<g id="Layer_1">
	<polygon class="st0" points="370.4,1.8 0.3,2.5 0.3,313.1 370.4,312.4 	"/>
	<polygon class="st0" points="621.4,2 621.4,313.1 1002.7,312.1 1002.7,2 	"/>
	<polygon class="st0" points="650.3,312.5 362.4,2 650.1,1.9 	"/>
	<polygon class="st0" points="366.3,2.1 654.4,312.4 366.8,312.7 	"/>
	<polygon class="st1" points="387.4,148.3 371.6,133.7 503,7.7 518.7,22.4 	"/>
</g>
<g id="Layer_3">
	<rect x="409" y="128" class="st1" width="22" height="185"/>
</g>
<g id="Layer_4">
	<rect x="573" y="127" class="st1" width="22" height="185"/>
</g>
<g id="Layer_5">
	
		<rect x="490.5" y="29.5" transform="matrix(-1.836970e-16 1 -1 -1.836970e-16 623.5 -379.5)" class="st1" width="22" height="185"/>
</g>
<g id="Layer_6">
	<polyline class="st1" points="409,113.5 591,113 591,133 409,133 409,113.5 	"/>
</g>
<g id="Layer_2">
	<polygon class="st1" points="488.2,22.6 504,8 635.2,134 619.4,148.6 	"/>
	<path class="st1" d="M224,51c30,6,43-3,43-3l25,32l-86,18L224,51z" id="rec1"/>
</g>
</svg>
