<?xml version="1.0" encoding="utf-8"?>
<!-- Generator: Adobe Illustrator 24.2.0, SVG Export Plug-In . SVG Version: 6.00 Build 0)  -->
<svg version="1.1" id="Layer_1" xmlns="http://www.w3.org/2000/svg" xmlns:xlink="http://www.w3.org/1999/xlink" x="0px" y="0px"
	 viewBox="0 0 1002 311" style="enable-background:new 0 0 1002 311;" xml:space="preserve">
<style type="text/css">
	.st0{fill:#FF2222;}
	.st1{fill:#FFFFFF;}
</style>
<polygon class="st0" points="369.7,-0.3 -0.4,0.4 -0.4,311 369.7,310.3 "/>
<polygon class="st0" points="620.7,-0.1 620.7,311 1002,310 1002,-0.1 "/>
<g>
	<polygon class="st1" points="826.4,310.4 693.9,0 662.6,0 659.4,3 790.5,310.4 	"/>
</g>
<g>
	<polygon class="st1" points="992,310.4 859.6,0 839.9,0 828.3,10.7 956.1,310.4 	"/>
</g>
<g>
	<polygon class="st1" points="950.4,0 940.4,274.2 970.7,276.6 980.7,0 	"/>
</g>
<g>
	<polygon class="st1" points="833,310.4 844.3,0 813.9,0 802.6,310.4 	"/>
</g>
<g>
	<polygon class="st1" points="68.7,0.1 0,28.1 0,74.5 182.8,0.1 	"/>
</g>
<g>
	<polygon class="st1" points="0.4,231.6 253.3,132.2 244.1,85.4 0.3,181.3 	"/>
</g>
<g>
	<polygon class="st1" points="191.9,311.1 347.6,255.8 336.9,205.6 39.6,311.1 	"/>
</g>
<polygon class="st0" points="649.6,310.4 361.7,-0.1 649.4,-0.2 "/>
<polygon class="st0" points="365.6,0 653.7,310.3 366.1,310.6 "/>
</svg>
