<?xml version="1.0" encoding="utf-8"?>
<!-- Generator: Adobe Illustrator 24.2.0, SVG Export Plug-In . SVG Version: 6.00 Build 0)  -->
<svg version="1.1" id="Layer_1" xmlns="http://www.w3.org/2000/svg" xmlns:xlink="http://www.w3.org/1999/xlink" x="0px" y="0px"
	 viewBox="0 0 1002 311" style="enable-background:new 0 0 1002 311;" xml:space="preserve">
<style type="text/css">
	.st0{fill:#FF2222;}
	.st1{fill:#FFFFFF;}
</style>
<g>
	<polygon class="st0" points="726.4,310 1002,310 1002,0.4 -0.4,0.4 -0.4,311 726.4,311 	"/>
</g>
<g>
	<polygon class="st1" points="73.8,0 -0.4,28 -0.4,74.4 197,0 	"/>
</g>
<g>
	<polygon class="st1" points="0.1,231.5 273.1,132.1 263.2,85.3 0,181.2 	"/>
</g>
<g>
	<polygon class="st1" points="206.8,311 375,255.7 363.4,205.5 42.4,311 	"/>
</g>
<g>
	<polygon class="st1" points="817.1,310 674.1,0 640.3,0 636.8,3 778.4,310 	"/>
</g>
<g>
	<polygon class="st1" points="996,310 853,0 831.7,0 819.2,10.7 957.2,310 	"/>
</g>
<g>
	<polygon class="st1" points="951,0 940.2,273.8 973,276.2 983.8,0 	"/>
</g>
<g>
	<polygon class="st1" points="824.3,310 836.5,0 803.7,0 791.5,310 	"/>
</g>
</svg>
