<?xml version="1.0" encoding="utf-8"?>
<!-- Generator: Adobe Illustrator 24.2.0, SVG Export Plug-In . SVG Version: 6.00 Build 0)  -->
<svg version="1.1" id="Layer_1" xmlns="http://www.w3.org/2000/svg" xmlns:xlink="http://www.w3.org/1999/xlink" x="0px" y="0px"
	 viewBox="0 0 661 573" style="enable-background:new 0 0 661 573;" xml:space="preserve">
<style type="text/css">
	.st0{fill:#79FEFE;}
</style>
<g>
	<image style="overflow:visible;" width="85" height="85" xlink:href="9216B96.png"  transform="matrix(1 0 0 1 386 -74)">
	</image>
</g>
<g>
	<g>
		<image style="overflow:visible;" width="727" height="632" xlink:href="9216B9A.png"  transform="matrix(1 0 0 1 -34 -30)">
		</image>
	</g>
	<g>
		<image style="overflow:visible;" width="692" height="619" xlink:href="9216B9D.png"  transform="matrix(1 0 0 1 -28 -18)">
		</image>
	</g>
</g>
<g>
	<g>
		<g>
			<image style="overflow:visible;" width="652" height="602" xlink:href="9216B9E.png"  transform="matrix(1 0 0 1 -8 -9)">
			</image>
		</g>
		<g>
			<image style="overflow:visible;" width="564" height="262" xlink:href="9216B9C.png"  transform="matrix(1 0 0 1 81 221)">
			</image>
		</g>
		<g>
			<image style="overflow:visible;" width="465" height="133" xlink:href="9216B9B.png"  transform="matrix(1 0 0 1 202 133)">
			</image>
		</g>
		<g>
			<image style="overflow:visible;" width="301" height="106" xlink:href="9216B95.png"  transform="matrix(1 0 0 1 361 158)">
			</image>
		</g>
	</g>
	<g>
		<g>
			<path class="st0" d="M124.4,212.2c73.2,1.1,146.4-2.9,219.1-12c20.6-2.6,41.2-5.6,61.7-9c6.7-1.1,5-11.8-1.6-11.7
				c-38.8,0.4-77.5,0.8-116.3,1.2c-38.6,0.4-77.3,1.4-115.9,1.1c-21.1-0.2-41.8-2.1-62.2-7.7c0.9,3.3,1.8,6.6,2.6,9.9
				c13.2-15.9,35.3-17.8,54.6-18.3c27.1-0.6,54.1,1,81.1,2.6c12.8,0.7,25.7,1,38.5-0.3c13.1-1.3,26-3.9,38.9-6.2
				c13.1-2.3,26.2-4.3,39.5-4c12.3,0.3,24.6,2.4,36.9,1.2c12.8-1.2,23.5-7.6,35.8-10.5c12.2-2.9,24.9-2.1,37.4-2.9
				c26.8-1.8,53.2-7.6,79.3-13.8c4.9-1.2,9.9-2.7,11.9-7.9c2-5.1-0.8-10.3-4.3-13.9c-7.9-8.2-19.4-12.7-29.8-16.9
				c-22.2-8.9-45.5-14.3-69.2-17.3c-54.6-6.9-110.1-0.3-164,9.1c-6.9,1.2-4.8,11.3,1.6,11.7c68.4,3.9,136.9,8.4,205.2,13.7
				c0-4,0-7.9,0-11.9c-26.5,0.2-53-0.6-79.4-2.5c1,3.7,2,7.4,3,11.1c16-10.7,35.3-9.8,53.7-8.4c19.1,1.4,38.6,3.5,57.3-2.3
				c7.4-2.3,4.3-13-3.2-11.5c-53.2,10.7-107.6,7.2-161.5,8.3c-53.9,1.1-107.3,8.7-160.1,19c-30.1,5.9-60,12.5-89.9,19.2
				c-6.4,1.4-5.2,12.5,1.6,11.7c76.1-9.7,153.2-10.5,229.4-2.4c19.7,2.1,39.9,5.4,59.2-1c5.4-1.8,5.9-9.9,0-11.5
				c-68.6-18.6-140.3-17.5-210.8-16.2c0.5,3.9,1.1,7.8,1.6,11.7c74.4-17.5,151.5-11,226.8-3.1c-0.5-3.9-1.1-7.8-1.6-11.7
				c-34.6,7.7-70.3,5.7-105.4,3.6c0.5,3.9,1.1,7.8,1.6,11.7c25.8-4.5,52.3-4.3,78,0.4c0.5-3.9,1.1-7.8,1.6-11.7
				c-71.2,7.4-143.2-22-213.7-3.2c-20.4,5.4-39.1,15.3-57.6,25.2c-5.2,2.7-2.9,11.3,3,11.1c25.9-1.1,51.7-2.2,77.6-3.3
				c-0.5-3.9-1.1-7.8-1.6-11.7c-33.3,8.2-67.1,14.4-101.1,18.2c1.4,3.4,2.8,6.8,4.2,10.2c3.6-4.5,9-5.7,14.5-6.5
				c6.5-0.9,13.2-1.4,19.8-1.8c14.6-0.9,29.2-0.9,43.8,0.1c29,1.8,57.6,7.4,85.2,16.3c0-3.8,0-7.7,0-11.5
				c-56,21.6-118.3-6.7-174,16.7c-7,2.9-4.5,12.8,3.2,11.5c60.4-10.6,122.5-11.7,183.3-3.2c-0.5-3.6-0.9-7.3-1.4-10.9
				c-14.9,9.3-34.1,9.7-51,11.9c-19.7,2.6-39.4,5.1-59.2,7.7c-7.3,1-7.9,12.1,0,11.9c38.6-1,77.3-2.1,115.9-3.1
				c-0.5-3.9-1.1-7.8-1.6-11.7c-25.5,4.1-51.4,5-77.1,2.9c0,4,0,7.9,0,11.9c60.1,2.1,119.7,12.1,177.3,29.6
				c0.5-3.9,1.1-7.8,1.6-11.7c-30,3.6-60.3-7.1-81.1-29.1c-1.4,3.4-2.8,6.8-4.2,10.2c53.4-1.8,106.8,1.8,159.5,11.1
				c0-3.8,0-7.7,0-11.5c-44.4,12-90.5,2.8-134.5-6.2c0,3.8,0,7.7,0,11.5c11.4-4,23.1-5.5,35.2-4.4c-0.5-3.9-1.1-7.8-1.6-11.7
				c-14.1,2.5-28.4,3.5-42.8,3.2c0,4,0,7.9,0,11.9c49.5-3.4,99.1-3.6,148.6-0.6c5.8,0.4,8.2-8.4,3-11.1c-18.1-9.3-29.9-26.3-41-42.8
				c-3.1,2.4-6.2,4.8-9.3,7.2c12.8,16.1,28.6,29.5,46.5,39.7c0.5-3.6,0.9-7.3,1.4-10.9c-18.7,4.9-38,5.7-57,2.3
				c-0.5,3.9-1.1,7.8-1.6,11.7c21.5-2.7,43.2-3.9,64.9-3.4c-0.5-3.9-1.1-7.8-1.6-11.7c-9.3,2.4-18.7,3.5-28.3,3.6c0,4,0,7.9,0,11.9
				c17.5-2,35-3.9,52.4-5.9c7.4-0.8,7.9-12,0-11.9c-5.4,0-10.8,0.1-16.2,0.1c0.5,3.9,1.1,7.8,1.6,11.7c5.3-1.9,10.6-3.2,16.2-3.7
				c7.5-0.7,7.8-12.2,0-11.9c-13.5,0.5-26.9-0.4-40.2-3.1c0,3.8,0,7.7,0,11.5c17.8-4,35.8-5.9,54-5.7c0-4,0-7.9,0-11.9
				c-37,3.8-84.4-3.6-100.3-42.8c-2.5-6.1-11.3-5.5-11.7,1.6c-0.8,14.2,7.5,26.4,17.5,35.8c11,10.3,23.9,19,36.7,27
				c26.5,16.6,55.3,29.4,85.4,38.1c1.1-3.8,2.1-7.7,3.2-11.5c-32-9.1-65.5-12.6-98.7-10.4c0.5,3.9,1.1,7.8,1.6,11.7
				c15.1-3.1,30.8-2.9,45.8,0.8c7,1.7,15.3,3.8,21.2,8.2c1.7,1.3,3.5,2.7,1.6,4.4c-2.4,2.2-7.1,0.1-9.5-0.9
				c-7-2.9-13.8-5.9-21.3-7.5c-7.3-1.6-14.8-2.3-22.3-2.4c-15.8-0.2-31.5,2.2-47.1,4.4c-16.1,2.3-32.1,3.9-48.4,3.8
				c-17.1-0.1-34.1-1.5-51.2-2.4c-16.7-0.9-33.4-1.5-50.1-0.1c-16.8,1.4-33.3,5-49.7,9c-34.6,8.4-71.4,18.4-106.4,5.8
				c-7.2-2.6-10.3,8.9-3.2,11.5c33.7,12.1,69.7,4.7,103.4-3.5c18.1-4.4,36.3-9.1,54.9-10.8c18.6-1.6,37.3-0.8,55.9,0.3
				c18.6,1.1,37.3,2.5,56,2.1c17.8-0.5,35.3-3.4,52.9-5.7c16.8-2.2,34.4-4,51.2-0.6c8.2,1.7,15.3,5.1,23,8
				c6.7,2.5,14.5,2.6,20.1-2.4c6.1-5.5,5.6-14.3,0-20c-5.9-6-15.1-8.8-22.9-11.1c-18.6-5.6-38.3-6.1-57.2-2.2
				c-6.5,1.4-5.1,12.1,1.6,11.7c32.3-2.1,64.4,1.2,95.5,10c7.4,2.1,10.5-9.3,3.2-11.5c-27.4-7.9-53.6-19.4-78.1-34.1
				c-11.8-7.1-23.4-14.8-34-23.7c-9.6-8-19.5-18.2-18.7-31.5c-3.9,0.5-7.8,1.1-11.7,1.6c7.7,18.9,22.6,33.6,41,42.2
				c22.1,10.3,46.8,11.8,70.7,9.3c7.5-0.8,7.8-11.8,0-11.9c-19.2-0.2-38.4,1.8-57.1,6.1c-5.6,1.3-5.8,10.3,0,11.5
				c14.3,2.9,28.8,4.1,43.3,3.5c0-4,0-7.9,0-11.9c-6.7,0.6-13.1,1.9-19.4,4.1c-6.1,2.2-5.5,11.7,1.6,11.7c5.4,0,10.8-0.1,16.2-0.1
				c0-4,0-7.9,0-11.9c-17.5,2-35,3.9-52.4,5.9c-7.4,0.8-7.9,12,0,11.9c10.6-0.1,21.1-1.4,31.4-4c6.6-1.7,5.1-11.5-1.6-11.7
				c-21.7-0.5-43.4,0.6-64.9,3.4c-3,0.4-5.4,2-5.8,5.2c-0.4,2.7,1.3,6,4.3,6.5c21.1,3.8,42.6,3.1,63.4-2.3c4.9-1.3,5.8-8.4,1.4-10.9
				c-17.1-9.7-31.8-22.5-44.1-37.9c-4.2-5.3-13.1,1.6-9.3,7.2c12.3,18.1,25.3,36.8,45.3,47.1c1-3.7,2-7.4,3-11.1
				c-49.5-3-99.1-2.8-148.6,0.6c-7.6,0.5-7.7,11.7,0,11.9c15.4,0.3,30.8-1,45.9-3.7c7-1.3,4.6-11.1-1.6-11.7
				c-13-1.1-26.1,0.5-38.4,4.9c-5.1,1.8-6.2,10.2,0,11.5c46.2,9.4,94.3,18.7,140.9,6.2c5.4-1.4,6-10.4,0-11.5
				c-53.7-9.4-108.2-13.3-162.6-11.5c-5.2,0.2-7.8,6.4-4.2,10.2c22.8,24,56.6,36.5,89.6,32.6c6.4-0.8,8.4-9.6,1.6-11.7
				c-58.5-17.8-119.3-27.8-180.5-30c-7.7-0.3-7.5,11.3,0,11.9c26.8,2.2,53.7,1,80.2-3.3c6.7-1.1,5-11.9-1.6-11.7
				c-38.6,1-77.3,2.1-115.9,3.1c0,4,0,7.9,0,11.9c21-2.7,42.1-5.5,63.1-8.2c17.9-2.3,37.4-3.1,53.1-13c3.9-2.4,4-10.1-1.4-10.9
				c-63-8.8-126.9-7.8-189.6,3.2c1.1,3.8,2.1,7.7,3.2,11.5c55.5-23.3,117.9,5,174-16.7c5.4-2.1,5.9-9.6,0-11.5
				c-29.8-9.6-60.8-15.3-92.1-16.9c-15.5-0.8-31.1-0.6-46.6,0.6c-12.1,1-27.9,0.9-36.2,11.3c-2.8,3.5-1.5,10.8,4.2,10.2
				c35.1-3.9,70-10.1,104.3-18.6c6.4-1.6,5.2-12-1.6-11.7c-25.9,1.1-51.7,2.2-77.6,3.3c1,3.7,2,7.4,3,11.1
				c16.3-8.7,32.7-17.5,50.5-22.8c16.6-4.9,33.8-6.9,51.1-7c34.9-0.3,69.4,6,104.1,9.1c19.8,1.8,39.8,2.4,59.6,0.4
				c6.1-0.6,8.8-10.4,1.6-11.7c-28-5.1-56.3-5.2-84.4-0.4c-6.9,1.2-4.8,11.3,1.6,11.7c36.2,2.1,72.8,3.9,108.5-4
				c7-1.6,4.7-11-1.6-11.7c-76.4-8-154.4-14.2-229.9,3.5c-6.5,1.5-5.1,11.8,1.6,11.7c69.4-1.3,140-2.5,207.6,15.8
				c0-3.8,0-7.7,0-11.5c-17,5.6-34.8,2.9-52.2,1c-18.6-2.1-37.2-3.6-55.8-4.6c-37.6-2-75.3-1.9-112.9,0.4
				c-21.6,1.3-43.1,3.4-64.6,6.1c0.5,3.9,1.1,7.8,1.6,11.7c53.5-11.9,107.1-24,161.5-31.2c26.4-3.5,52.9-5.8,79.5-6.5
				c27-0.7,54-0.2,81-0.6c30-0.5,60-2.4,89.4-8.3c-1.1-3.8-2.1-7.7-3.2-11.5c-37,11.5-79.5-11.1-113.8,11.9c-5,3.4-2.9,10.7,3,11.1
				c26.4,1.9,52.9,2.8,79.4,2.5c7.7-0.1,7.6-11.3,0-11.9c-68.4-5.3-136.8-9.8-205.2-13.7c0.5,3.9,1.1,7.8,1.6,11.7
				c46.1-8,93-13.7,139.9-10.7c23,1.5,45.9,5.3,68,12.1c10.7,3.3,21.5,7.1,31.5,12.3c2.4,1.2,4.8,2.6,7,4.1c1.8,1.2,3.8,4,5.6,4.8
				c0.8,0.3,2.8,0,0.4,0.5c-1.1,0.2-2.2,0.5-3.3,0.8c-3.8,0.9-7.6,1.8-11.4,2.6c-24.7,5.6-49.6,10.4-75,11.2
				c-11.9,0.4-24,0.6-35.4,4.3c-11.5,3.8-21.5,8.8-33.9,9c-12.1,0.2-24.1-1.8-36.1-1.6c-12.4,0.3-24.8,2.2-37.1,4.4
				c-12.5,2.2-24.9,4.8-37.6,6c-12.2,1.1-24.4,0.8-36.6,0.1c-28.5-1.7-56.9-3.6-85.5-2.4c-21,0.8-44.4,4.5-58.7,21.6
				c-2.8,3.3-2,8.7,2.6,9.9c36.8,10.1,74.9,8.1,112.7,7.7c39.4-0.4,78.9-0.8,118.3-1.2c22.2-0.2,44.4-0.5,66.6-0.7
				c-0.5-3.9-1.1-7.8-1.6-11.7c-71.4,11.8-143.6,18.5-215.9,20.3c-20.6,0.5-41.2,0.6-61.8,0.3C116.7,200.2,116.7,212.1,124.4,212.2
				L124.4,212.2z"/>
		</g>
	</g>
	<g>
		<g>
			<path class="st0" d="M168.5,299.9c76.6,6.5,153.9,3.2,229.7-9.4c21.5-3.6,42.9-8,64.1-13.1c-1.1-3.8-2.1-7.7-3.2-11.5
				c-82.3,23.4-168.6,18.5-253,25.2c-23.8,1.9-47.5,4.8-70.9,9.3c1.1,3.8,2.1,7.7,3.2,11.5c95.8-24.7,195.6-17.9,293.3-27.4
				c27.5-2.7,54.9-6.6,81.8-12.8c6.4-1.5,5.2-12.4-1.6-11.7c-52.7,5.3-105.7,12.5-158.7,13.9c-25.8,0.7-51.2-1.1-76.8-4.2
				c-13-1.5-26-3-39.1-3c-12.3,0-24.6,1.3-36.8,3.2c-27.7,4.3-54.9,12-82.8,14.9c0.5,3.9,1.1,7.8,1.6,11.7
				c56.9-7.9,113.9-15.6,170.9-22.9c7.5-1,7.8-11.2,0-11.9c-58.3-4.9-112.9,24.3-171,22c0.5,3.9,1.1,7.8,1.6,11.7
				c54-12.2,109.9-24.8,165.5-17c0-3.8,0-7.7,0-11.5c-60.5,9.8-121.1,19.6-181.6,29.3c-6.6,1.1-5.1,12.2,1.6,11.7
				c67.2-5,134.7-4.7,201.8,0.8c0-4,0-7.9,0-11.9c-50.7,5-101.7,1.4-152.4-2.2c0,4,0,7.9,0,11.9c73.7-6.6,147.5-13.2,221.5-13
				c20.9,0,41.8,0.7,62.6,1.9c-1-3.7-2-7.4-3-11.1c-72.9,31.3-154.3,27.4-231.9,24.8c-22.4-0.8-44.7-1.4-67.1-1.4c0,4,0,7.9,0,11.9
				c99.5-4.5,199.1,1.3,298.5,7.8c27.5,1.8,54.9,3.6,82.4,5.4c6.8,0.4,7.9-9.9,1.6-11.7c-75-20.8-150.8,8.3-226,12.2
				c-21.4,1.1-42.9,0.1-63.8-4.7c0,3.8,0,7.7,0,11.5c78.9-22.1,161.8-18.4,242.3-9.1c23.2,2.7,46.4,5.8,69.6,9
				c7.3,1,10.8-9.7,3.2-11.5c-56.8-13.3-115.5-17.7-173.7-13c-7.5,0.6-7.8,12,0,11.9c48.4-0.8,96.9,0.2,145.2,3.1
				c-0.5-3.9-1.1-7.8-1.6-11.7c-45.8,15.7-93.3,20.5-141.5,17.3c-25-1.6-49.9-4.7-74.9-6.6c-24.4-1.9-48.9-2.5-73.4-1.8
				c-27.6,0.8-55.1,3.2-82.4,7.1c-6.7,1-5,11.8,1.6,11.7c91.2-1.3,181.3-20,272.6-20c25.6,0,51.2,1.5,76.6,5.3c0-3.8,0-7.7,0-11.5
				c-98.5,18.1-198,30.8-298,38.1c-28,2-56.1,3.7-84.2,4.9c0.5,3.9,1.1,7.8,1.6,11.7c33.5-12.5,69.3-16.3,104.5-20.9
				c37.5-4.9,75.1-9.6,112.8-12.3c21.3-1.5,42.6-2.4,64-2.4c-0.5-3.9-1.1-7.8-1.6-11.7c-77,18.8-156.1,28-235.4,27.5
				c0.5,3.9,1.1,7.8,1.6,11.7c72.3-15.6,146.6-18.1,220.4-17.6c21,0.1,41.9,0.5,62.9,0.9c-0.5-3.9-1.1-7.8-1.6-11.7
				c-71.2,15.2-142.4,30.4-214.4,41.2c-20.5,3.1-41,5.7-61.5,8c0.5,3.9,1.1,7.8,1.6,11.7c73.4-18.5,149-27.7,224.7-27
				c21.4,0.2,42.7,1.2,64,2.9c0-4,0-7.9,0-11.9c-94.5,1.9-188.9,6.7-283.2,12.1c-26.8,1.5-53.6,3.1-80.4,4.7
				c-7.6,0.5-7.7,11.6,0,11.9c96.6,3.3,193.3,6.7,290,3.4c27.4-0.9,54.7-2.4,82-4.6c-0.5-3.9-1.1-7.8-1.6-11.7
				c-45.1,14.2-93.1,12.5-139.8,15.1c-49,2.7-97.9,7.5-146.6,14.2c-27.3,3.8-54.5,8.2-81.6,13.2c1.1,3.8,2.1,7.7,3.2,11.5
				c47.6-11.7,96.7-14.8,145.6-14.9c24.2,0,48.4,0.7,72.6,1.6c24.1,0.8,48.5,2.7,72.4-0.3c13.1-1.6,25.3-5,37.5-9.7
				c11.8-4.6,23.7-9.3,36.6-7.8c-0.5-3.9-1.1-7.8-1.6-11.7c-80.7,15.1-161.7,28.7-243,40.6c-6.6,1-5.1,12.5,1.6,11.7
				c80.9-9.4,162,2.4,243,3.7c23.1,0.4,46.3-0.2,69.4-2.3c7.6-0.7,7.7-11.4,0-11.9c-67.8-4.2-135.7-5-203.5-2.6
				c0.5,3.9,1.1,7.8,1.6,11.7c65-15.8,132.3-13.6,198.5-11.3c5.4,0.2,7.5-6.5,4.2-10.2c-9.8-11.1-25.5-10.7-39-9.6
				c-17.9,1.5-35.7,3.7-53.5,5.8c-35.1,4.2-70.4,8.4-105.8,6.8c-20.2-0.9-40.1-3.9-59.5-9.7c0,3.8,0,7.7,0,11.5
				c64-25.3,133.4-8.1,198.9,0.5c19.8,2.6,39.6,4.4,59.6,4.3c-1-3.7-2-7.4-3-11.1c-60.1,32.3-131.3,28.2-197.2,24.1
				c1,3.7,2,7.4,3,11.1c53.4-27.9,117.2-32.7,174.2-13.7c-0.9-3.3-1.8-6.6-2.6-9.9c-10,9.5-26.4,10.3-39.5,11.5
				c-15.7,1.5-31.4,1.8-47.1,1.7c-31.8-0.3-63.6-2.4-95.4-0.5c-17.7,1.1-35.3,3.4-52.4,7.8c-6.9,1.8-4.8,11,1.6,11.7
				c34.4,3.5,68.9,7.1,103.3,10.6c17.2,1.8,34.4,3.5,51.7,5.3c15.3,1.6,31.1,2.8,45.2,9.5c1-3.7,2-7.4,3-11.1
				c-70.2-1.7-140.5-0.4-210.6,4c-19.8,1.2-39.7,2.7-59.5,4.5c-6.6,0.6-8.2,9.5-1.6,11.7c31.9,10.7,65.7,12.5,99,12.1
				c35.4-0.4,70.9-2,106.3-3.1c20.6-0.6,41.1-1.3,61.7-1.9c6.7-0.2,8.1-9.7,1.6-11.7c-66-20-135.3-8.6-202.9-9.7
				c-19.3-0.3-38.6-1.7-57.6-5.2c-7.4-1.4-10.6,9.3-3.2,11.5c68.1,19.5,138.6,1.8,207.7-0.2c19.7-0.6,39.4,0.1,58.9,3.4
				c0-3.8,0-7.7,0-11.5c-19,4-38.5,3.3-57.7,2c-19.4-1.3-38.7-2.8-58.2-3.7c-38.1-1.7-76.8-3.2-114.9,0
				c-20.7,1.8-41.3,5.4-60.9,12.5c-6.1,2.2-5.4,11.6,1.6,11.7c35.6,0.6,71.2,1.2,106.8,1.9c-1-3.7-2-7.4-3-11.1
				c-6.1,4.6-13.1,6-20.5,6.6c-8.7,0.7-17.4,0.9-26.1,1.3c-18.5,0.9-36.9,1.7-55.4,2.6c0,4,0,7.9,0,11.9
				c79.7-9.8,159.9-15.5,240.2-16.9c-0.5-3.9-1.1-7.8-1.6-11.7c-71.9,13.6-144.3,25.9-217.6,28.1c-20.8,0.6-41.7,0.4-62.5-0.8
				c0.5,3.9,1.1,7.8,1.6,11.7c96.7-23,195.9-35.2,295.3-36.1c28.4-0.3,56.7,0.4,85,1.9c-0.5-3.9-1.1-7.8-1.6-11.7
				c-46.8,14-93.9,26.6-141.4,37.7c-6.5,1.5-5.2,12.1,1.6,11.7c50.1-2.8,100.1-5.5,150.2-8.3c6.3-0.3,8.6-10.7,1.6-11.7
				C457.4,498.5,374.7,487,294.1,466c-18.8-4.9-38.2-9.5-55.5-18.4c-3.7-1.9-7.7-3.9-10.9-6.5c-1.5-1.2-2.6-2-1.8-3.8
				c0.9-1.8,4.2-3.7,5.7-4.8c7.6-5.6,15.7-10.5,24.1-14.9c34.1-17.7,72.6-26.5,109.8-34.9c46.5-10.6,93.5-18.7,140.5-26.8
				c6.5-1.1,5.1-12.5-1.6-11.7c-74,8.4-148.1,15.1-222.4,20c-21,1.4-42.1,2.6-63.1,3.7c0.5,3.9,1.1,7.8,1.6,11.7
				c74.4-21.9,150.5-41.9,228.4-44.4c21.7-0.7,43.4,0,65,2.3c-0.5-3.9-1.1-7.8-1.6-11.7c-54.7,12.9-110.1,22.6-166,28.7
				c0.5,3.9,1.1,7.8,1.6,11.7c48-8.3,96-16.7,144-25c5.9-1,5.5-10.2,0-11.5c-48.9-11.6-97.9-23.4-145.2-40.7c0,3.8,0,7.7,0,11.5
				c70.6-22.4,144.7,2.1,215.8,8.5c0-4,0-7.9,0-11.9c-67.7-2.3-135.4,1.6-202.5,11.2c-6.6,0.9-5.1,12.2,1.6,11.7
				c57.6-4.6,115.4-9.2,173.1-4.1c0-4,0-7.9,0-11.9c-46.3,3.2-92.7,4.4-139.1,3.7c0,4,0,7.9,0,11.9c35.9-0.3,71.7-2.6,107.4-7.2
				c3-0.4,5.4-2,5.8-5.2c0.4-2.7-1.3-6.1-4.3-6.5c-57.1-9.3-115.2-9.4-172.3-0.4c1.1,3.8,2.1,7.7,3.2,11.5
				c63.3-13,126.6-26,189.9-39c6.6-1.4,5.1-11.8-1.6-11.7c-71.9,1.6-143.9,3.2-215.8,4.8c0.5,3.9,1.1,7.8,1.6,11.7
				c67.8-16.2,137.9-16.2,207.2-16.2c5.5,0,8.7-8.7,3-11.1c-28-12-59.5-13.7-89.3-17.7c-32.3-4.4-64.7-8.8-97-13.1
				c-0.5,3.9-1.1,7.8-1.6,11.7c72.9,0.2,145.9-1.8,218.4-10.5c-0.5-3.9-1.1-7.8-1.6-11.7c-75.7,14.7-151.4,29.3-227.1,44
				c-6.9,1.3-4.8,11.4,1.6,11.7c55.1,2.6,110-3.9,164.7-10.5c7.5-0.9,7.7-12.7,0-11.9c-79,7.7-155,34.7-234.3,40.1
				c-22.2,1.5-44.7,1.3-66.8-1.8c1.4,1.4,2.8,2.8,4.2,4.2c-0.7-3.6,6.4-8.3,8.8-10.3c3.9-3.4,7.8-6.6,11.8-9.8
				c7.9-6.2,16.1-11.9,24.6-17.2c16.9-10.6,34.9-19.4,53.7-26.3c-1.1-3.8-2.1-7.7-3.2-11.5c-49.2,19-101.6,28.6-154.3,28.1
				c-7.8-0.1-7.4,11.1,0,11.9c31.7,3.6,63.6,5.9,95.5,6.8c27.2,0.8,57.5,3.5,79.8-15c9.6-8,17.1-18.7,24-29.1
				c6.6-10,7.4-21.6-2.5-29.6c-9.7-7.8-23.2-9.3-35.1-11.1c-15-2.3-30.2-3.6-45.4-4c-35.3-0.9-70.6,2.6-105.7,6.1
				c-7.5,0.7-7.8,11.8,0,11.9c44.8,0.6,89.7-0.9,134.4-4.4c7.6-0.6,7.8-11.7,0-11.9c-46.8-1.2-93.6,6.4-137.5,22.4
				c-6.1,2.2-5.5,11.7,1.6,11.7c30.8,0,61.7,0,92.5,1.3c14.5,0.6,29.1,1.3,43.5,2.9c12.2,1.4,25.1,4.1,34.8,11.9
				c-0.3-2.4-0.6-4.8-0.9-7.2c-3.4,4.6-9.1,7.1-14.3,9c-6.7,2.4-13.4,4.5-20.2,6.7c-14.5,4.7-29,9.5-43.5,14.2
				c-29,9.5-58,19-86.9,28.5c-6,2-5.4,12.3,1.6,11.7c57.1-5,115.4-10.1,172,2.3c-1.2-2.9-2.4-5.8-3.6-8.7
				c-9.1,12.6-27,16.9-40.7,22.7c-15.7,6.6-31,14-45.9,22.1c-30.4,16.4-59,35.9-85.7,57.8c-3.3,2.7-1.7,9.3,2.6,9.9
				c24.3,3.7,48.8,2.4,73.3,2.9c23.7,0.5,47.7,3.2,68.2,16.1c0-3.4,0-6.9,0-10.3c-47,24.8-100.2,32.8-152.2,40.1
				c1.1,3.8,2.1,7.7,3.2,11.5c38.5-6.9,77.9-7.9,116.8-3.2c-0.5-3.9-1.1-7.8-1.6-11.7c-37.7,8.9-76.1,14.5-114.8,16.8
				c0.5,3.9,1.1,7.8,1.6,11.7c54.8-11.6,109.5-23.3,164.3-34.9c7.5-1.6,4.3-12.9-3.2-11.5c-60.2,11.5-120.4,23-180.7,34.4
				c-6.6,1.3-5.1,11.9,1.6,11.7c57-1.8,114-5.2,170.8-10.1c7.5-0.7,7.8-12.1,0-11.9c-53.2,1.4-106.3,7.5-158.4,18.1
				c-7.5,1.5-4.3,12.8,3.2,11.5c54.2-9.9,109.3-13.5,164.2-17.1c6.5-0.4,8.3-9.8,1.6-11.7c-51.4-14.8-107.4-9.1-154.8,15.5
				c-3.8,2-4,8.4,0,10.3c26,12.3,53.6,20.1,81.3,27.7c0.5-3.9,1.1-7.8,1.6-11.7c-26,1.1-52,2.3-78,3.4c0,4,0,7.9,0,11.9
				c100.9-9.2,202.2-18.4,303.7-15.7c14.2,0.4,28.4,1,42.5,1.8c7.2,0.4,14.5,0.9,21.7,1.5c2.8,0.2,5.8,0.2,8.5,1
				c1,0.3,2.3,0.6,2.9,1.5c0.6,0.9,0,1.1,0.5,0.8c-6.5,4-0.6,14.3,6,10.3c9.3-5.7,6.1-18.5-2.7-22.7c-5.3-2.5-11.5-2.5-17.3-2.9
				c-6.9-0.5-13.8-1-20.7-1.4c-28-1.7-56-2.3-84.1-2.2c-55.5,0.3-111,3.6-166.3,7.9c-31.6,2.5-63.3,5.4-94.9,8.2
				c-7.5,0.7-7.8,12.2,0,11.9c26-1.1,52-2.3,78-3.4c6.6-0.3,8.2-9.9,1.6-11.7c-26.6-7.3-53.4-14.7-78.4-26.5c0,3.4,0,6.9,0,10.3
				c44.6-23.1,97.4-28.2,145.7-14.3c0.5-3.9,1.1-7.8,1.6-11.7c-56,3.7-112.1,7.4-167.4,17.6c1.1,3.8,2.1,7.7,3.2,11.5
				c51.1-10.4,103.1-16.3,155.2-17.7c0-4,0-7.9,0-11.9c-56.8,4.9-113.8,8.3-170.8,10.1c0.5,3.9,1.1,7.8,1.6,11.7
				c60.2-11.5,120.4-23,180.7-34.4c-1.1-3.8-2.1-7.7-3.2-11.5c-54.8,11.6-109.5,23.3-164.3,34.9c-6.5,1.4-5.1,12.1,1.6,11.7
				c39.7-2.3,79.2-8.1,118-17.2c7-1.7,4.6-11-1.6-11.7c-40-4.8-80.4-3.4-120,3.7c-7.6,1.4-4.3,12.5,3.2,11.5
				c53.1-7.5,107-16,155.1-41.3c4.1-2.2,3.6-8,0-10.3c-43.3-27.4-96.5-12.9-144.3-20.2c0.9,3.3,1.8,6.6,2.6,9.9
				c27.2-22.4,56.7-41.9,87.9-58.4c15.6-8.3,31.6-15.7,48-22.3c14.4-5.8,28.8-11.2,38.2-24.2c2.2-3,0-8-3.6-8.7
				c-57.7-12.6-116.9-7.8-175.1-2.7c0.5,3.9,1.1,7.8,1.6,11.7c30.9-10.1,61.7-20.2,92.6-30.3c15.1-5,30.2-9.9,45.4-14.9
				c12.6-4.1,25.7-7.6,34.1-18.7c1.4-1.9,0.9-5.7-0.9-7.2c-22.1-17.8-53.9-16.8-80.8-18c-32.8-1.5-65.6-1.5-98.5-1.5
				c0.5,3.9,1.1,7.8,1.6,11.7c43.1-15.7,88.6-23.1,134.4-22c0-4,0-7.9,0-11.9c-44.7,3.5-89.6,5-134.4,4.4c0,4,0,7.9,0,11.9
				c28.1-2.8,56.3-5.6,84.6-6.2c27.2-0.5,55.7,0.4,82.2,7.2c8.4,2.2,19.2,6.8,13.4,17c-5.6,9.8-13.1,19.7-21.5,27.3
				c-19.6,17.9-49.2,14.3-73.7,13.6c-31.9-0.9-63.8-3.2-95.5-6.8c0,4,0,7.9,0,11.9c53.7,0.5,107.4-9.1,157.5-28.5
				c7-2.7,4.1-14.1-3.2-11.5c-21.8,8-42.8,18.4-62.2,31.2c-9.5,6.2-18.5,13-27.3,20.2c-8.2,6.8-20.1,14.7-17.7,26.9
				c0.4,1.8,2.3,3.9,4.2,4.2c80.1,11,158.4-11.8,236.2-27.3c22.5-4.5,45.1-8.3,68-10.6c0-4,0-7.9,0-11.9
				c-54.6,6.6-109.5,13.2-164.7,10.5c0.5,3.9,1.1,7.8,1.6,11.7c75.7-14.7,151.4-29.3,227.1-44c6.5-1.3,5.1-12.5-1.6-11.7
				c-72.4,8.7-145.5,10.7-218.4,10.5c-6.5,0-8.4,10.8-1.6,11.7c31.7,4.3,63.4,8.6,95,12.9c15.5,2.1,30.9,4.1,46.4,6.3
				c14.3,2.1,28.8,4.7,42.1,10.4c1-3.7,2-7.4,3-11.1c-70.4,0-141.5,0.2-210.4,16.6c-6.5,1.6-5.1,11.8,1.6,11.7
				c71.9-1.6,143.9-3.2,215.8-4.8c-0.5-3.9-1.1-7.8-1.6-11.7c-63.3,13-126.6,26-189.9,39c-7.6,1.6-4.3,12.7,3.2,11.5
				c54.9-8.7,111.2-8.5,166,0.4c0.5-3.9,1.1-7.8,1.6-11.7c-35.6,4.5-71.5,6.9-107.4,7.2c-7.7,0.1-7.7,11.8,0,11.9
				c46.4,0.7,92.8-0.5,139.1-3.7c7.7-0.5,7.6-11.2,0-11.9c-57.7-5.1-115.6-0.6-173.1,4.1c0.5,3.9,1.1,7.8,1.6,11.7
				c66-9.5,132.7-13,199.3-10.8c7.8,0.3,7.5-11.2,0-11.9c-72.4-6.5-147.1-30.9-218.9-8.1c-5.8,1.9-5.4,9.5,0,11.5
				c47.2,17.4,96.3,29.1,145.2,40.7c0-3.8,0-7.7,0-11.5c-48,8.3-96,16.7-144,25c-6.5,1.1-5.1,12.4,1.6,11.7
				c56.9-6.3,113.4-16,169.2-29.1c7-1.7,4.7-11-1.6-11.7c-77.9-8.3-156.2,4.9-231.5,24.3c-21.8,5.6-43.5,11.8-65.1,18.1
				c-6.2,1.8-5.3,12.1,1.6,11.7c74.3-3.9,148.6-9.6,222.7-17c21-2.1,41.9-4.4,62.9-6.7c-0.5-3.9-1.1-7.8-1.6-11.7
				c-44.1,7.6-88.2,15.2-131.9,24.9c-40,8.9-81.3,18.1-118.1,36.5c-8.7,4.3-17.1,9.3-25.1,14.9c-6.7,4.8-16.3,11-13.9,20.7
				c2.2,8.7,13,13.6,20.4,17.3c8.8,4.4,18.1,7.7,27.4,10.6c41.7,12.9,84.8,21.7,127.7,29.5c48.9,8.9,98.2,15.7,147.4,22.5
				c0.5-3.9,1.1-7.8,1.6-11.7c-50.1,2.8-100.1,5.5-150.2,8.3c0.5,3.9,1.1,7.8,1.6,11.7c47.5-11.2,94.7-23.8,141.4-37.7
				c6.6-2,5.1-11.3-1.6-11.7c-100.3-5.4-201.1,0.5-300.1,17.5c-27.9,4.8-55.7,10.5-83.3,17.1c-6.8,1.6-4.9,11.3,1.6,11.7
				c73.9,4.2,147.8-4.2,220.6-16.4c20.9-3.5,41.8-7.4,62.7-11.3c6.7-1.3,5-11.8-1.6-11.7c-80.3,1.4-160.5,7-240.2,16.9
				c-7.4,0.9-7.8,12.3,0,11.9c19.8-0.9,39.6-1.8,59.4-2.8c15.9-0.7,35.2,0.8,48.7-9.3c4.5-3.4,3.4-11-3-11.1
				c-35.6-0.6-71.2-1.2-106.8-1.9c0.5,3.9,1.1,7.8,1.6,11.7c34.9-12.7,72.2-13.8,108.9-13.7c39.4,0.1,78.7,2.1,118.1,5
				c21.7,1.6,43.4,2.3,64.8-2.1c5.6-1.2,5.8-10.5,0-11.5c-69.7-11.7-139.1,7.6-208.9,5.4c-19.5-0.6-38.9-3.2-57.7-8.6
				c-1.1,3.8-2.1,7.7-3.2,11.5c67.6,12.3,136.1-0.7,204.2,4.6c19.1,1.5,38,4.7,56.4,10.3c0.5-3.9,1.1-7.8,1.6-11.7
				c-35.8,1.1-71.6,2.2-107.4,3.3c-33.7,1-67.6,3.2-101.3,0.6c-18.8-1.4-37.3-4.7-55.1-10.6c-0.5,3.9-1.1,7.8-1.6,11.7
				c70-6.1,140.2-9.2,210.5-9.2c19.9,0,39.8,0.2,59.6,0.7c5.7,0.1,8.4-8.5,3-11.1c-14.3-6.9-29.8-8.9-45.4-10.6
				c-17.8-1.8-35.6-3.6-53.4-5.5c-35.8-3.7-71.5-7.3-107.3-11c0.5,3.9,1.1,7.8,1.6,11.7c63.8-16.3,129.9-2.1,194.6-8.8
				c15.7-1.6,33-3.3,45.1-14.7c3.4-3.2,1.5-8.6-2.6-9.9c-60.1-20-127.3-14.4-183.4,14.9c-5.6,2.9-2.5,10.7,3,11.1
				c68.2,4.3,141,7.7,203.2-25.7c5.3-2.8,2.8-11.1-3-11.1c-69.5,0.3-137.4-23.4-207.1-16.9c-18.7,1.8-37.1,5.6-54.6,12.5
				c-5.3,2.1-6,9.7,0,11.5c67.1,20,137.2,6.2,205.1-0.8c8.9-0.9,18-2.1,27-2.2c7.5-0.1,15.2,0.8,20.5,6.7c1.4-3.4,2.8-6.8,4.2-10.2
				c-67.4-2.3-135.7-4.3-201.7,11.8c-6.5,1.6-5.2,11.9,1.6,11.7c67.8-2.4,135.8-1.6,203.5,2.6c0-4,0-7.9,0-11.9
				c-81.1,7.3-162.1-5-243.2-5.1c-23.1,0-46.2,1-69.2,3.6c0.5,3.9,1.1,7.8,1.6,11.7c81.3-11.9,162.3-25.5,243-40.6
				c7.2-1.3,4.5-11-1.6-11.7c-22.9-2.8-43.7,11.8-65.6,16.1c-24,4.7-49,2.8-73.3,1.9c-48.9-1.7-98-3.3-146.9,0.6
				C148.5,411,121,415,94,421.6c-7.5,1.8-4.3,12.9,3.2,11.5c48.5-9,97.4-16,146.5-20.9c24.2-2.4,48.4-4.3,72.6-5.7
				c24.1-1.4,48.3-1.9,72.4-3.4c25.8-1.6,51.7-4.7,76.5-12.5c6.1-1.9,5.4-12.2-1.6-11.7c-96.4,7.6-193.2,6.7-289.8,3.9
				c-27.4-0.8-54.8-1.7-82.1-2.7c0,4,0,7.9,0,11.9c94.3-5.6,188.7-11.2,283.1-14.6c26.8-1,53.7-1.7,80.5-2.3
				c7.8-0.2,7.6-11.3,0-11.9c-76.2-6.1-153-2.4-228.3,10.9c-21.3,3.8-42.5,8.3-63.5,13.7c-6.3,1.6-5.2,12.4,1.6,11.7
				c73.3-7.9,145.7-21.6,217.8-36.6c20.5-4.3,40.9-8.6,61.3-13c6.7-1.4,5-11.6-1.6-11.7c-74.7-1.3-149.7-2.6-224,6.6
				c-20.9,2.6-41.8,6-62.4,10.5c-6.7,1.4-5,11.7,1.6,11.7c80.3,0.5,160.5-8.9,238.5-27.9c6.6-1.6,5.1-11.7-1.6-11.7
				c-38.1,0-76.2,2.9-114.1,7.1c-37.1,4-74.3,8.5-111.2,14.3c-20.1,3.2-40.1,7.5-59.2,14.6c-5.9,2.2-5.6,12,1.6,11.7
				c100.5-4.3,200.8-14,300.2-29.1c28.4-4.3,56.8-9.1,85.1-14.3c5.6-1,5.8-10.6,0-11.5c-91.5-13.8-183.2,1.6-274.4,9.9
				c-25.9,2.4-51.9,4.1-77.9,4.5c0.5,3.9,1.1,7.8,1.6,11.7c48.5-6.9,97.8-8.7,146.7-5.3c49.2,3.4,98.1,11.5,147.5,6.4
				c26.5-2.7,52.6-8.4,77.9-17c6.4-2.2,5.2-11.3-1.6-11.7c-48.4-2.8-96.8-3.8-145.2-3.1c0,4,0,7.9,0,11.9
				c57.2-4.6,114.7-0.5,170.6,12.5c1.1-3.8,2.1-7.7,3.2-11.5c-82.2-11.4-165.9-22.9-248.9-13.3c-23.4,2.7-46.6,7-69.3,13.4
				c-5.5,1.5-5.8,10.1,0,11.5c75.8,17.5,150.9-12.2,226.6-14.4c21.4-0.6,42.6,1.2,63.2,6.9c0.5-3.9,1.1-7.8,1.6-11.7
				c-99-6.5-198-14.3-297.2-14.8c-27.9-0.1-55.7,0.3-83.6,1.6c-7.6,0.3-7.7,11.9,0,11.9c80.1-0.3,161.4,10,240.8-5.4
				c22.1-4.3,43.6-10.8,64.3-19.7c5.9-2.5,2.3-10.8-3-11.1c-73.9-4.5-147.9-0.4-221.6,5.7c-20.8,1.7-41.7,3.6-62.5,5.4
				c-7.6,0.7-7.7,11.4,0,11.9c50.7,3.7,101.7,7.2,152.4,2.2c7.6-0.7,7.7-11.3,0-11.9c-67.2-5.5-134.7-5.8-201.8-0.8
				c0.5,3.9,1.1,7.8,1.6,11.7c60.5-9.8,121.1-19.6,181.6-29.3c5.6-0.9,5.7-10.7,0-11.5c-58-8.1-115.5,4.3-171.8,17
				c-6.7,1.5-4.9,11.4,1.6,11.7c58.2,2.3,112.8-27,171-22c0-4,0-7.9,0-11.9c-58.1,7.5-116.1,15.2-174.1,23.3
				c-6.6,0.9-5.1,12.4,1.6,11.7c24.7-2.5,48.8-8.5,73.2-13.1c25.4-4.8,50.1-5.9,75.8-3.1c25.6,2.8,50.9,5.7,76.7,5.5
				c26.5-0.2,52.9-2.5,79.2-5.1c29.8-2.9,59.6-6,89.4-9c-0.5-3.9-1.1-7.8-1.6-11.7c-96.4,22-196.1,14.5-293.8,25.6
				c-27.4,3.1-54.7,7.6-81.4,14.5c-7.5,1.9-4.3,12.9,3.2,11.5c83.8-16.1,169.8-9.5,254.1-20.6c23.6-3.1,46.9-7.5,69.8-14
				c7.4-2.1,4.3-13.3-3.2-11.5c-74,17.8-150.1,26.4-226.3,25.3c-21.5-0.3-42.9-1.4-64.4-3.2C160.8,287.4,160.9,299.3,168.5,299.9
				L168.5,299.9z"/>
		</g>
	</g>
</g>
</svg>
