<?xml version="1.0" encoding="utf-8"?>
<!-- Generator: Adobe Illustrator 24.2.0, SVG Export Plug-In . SVG Version: 6.00 Build 0)  -->
<svg version="1.1" id="Layer_1" xmlns="http://www.w3.org/2000/svg" xmlns:xlink="http://www.w3.org/1999/xlink" x="0px" y="0px"
	 viewBox="0 0 52 51" style="enable-background:new 0 0 52 51;" xml:space="preserve">
<style type="text/css">
	.st0{fill:#FFFFFF;}
</style>
<g>
	<path class="st0" d="M6,50.5c-2.5,0-4.5-2-4.5-4.5V5c0-2.5,2-4.5,4.5-4.5h41c2.5,0,4.5,2,4.5,4.5v41c0,2.5-2,4.5-4.5,4.5H6z"/>
	<path d="M47,1c2.2,0,4,1.8,4,4v41c0,2.2-1.8,4-4,4H6c-2.2,0-4-1.8-4-4V5c0-2.2,1.8-4,4-4H47 M47,0H6C3.2,0,1,2.2,1,5v41
		c0,2.8,2.2,5,5,5h41c2.8,0,5-2.2,5-5V5C52,2.2,49.8,0,47,0L47,0z"/>
</g>
<g>
	<g>
		<rect x="10" y="23" width="22" height="3"/>
	</g>
	<polygon points="32,24.3 32,17.7 37.8,21 43.5,24.3 37.8,27.7 32,31 	"/>
</g>
</svg>
